<mxfile host="app.diagrams.net" modified="2023-06-18T12:58:43.063Z" agent="Mozilla/5.0 (Windows NT 10.0; Win64; x64) AppleWebKit/537.36 (KHTML, like Gecko) Chrome/114.0.0.0 Safari/537.36" etag="vS59Kk1O065ENoOQgvA3" version="21.4.0" type="github">
  <diagram id="C5RBs43oDa-KdzZeNtuy" name="Page-1">
    <mxGraphModel dx="1434" dy="879" grid="1" gridSize="10" guides="1" tooltips="1" connect="1" arrows="1" fold="1" page="1" pageScale="1" pageWidth="827" pageHeight="1169" math="0" shadow="0">
      <root>
        <mxCell id="WIyWlLk6GJQsqaUBKTNV-0" />
        <mxCell id="WIyWlLk6GJQsqaUBKTNV-1" parent="WIyWlLk6GJQsqaUBKTNV-0" />
        <mxCell id="_Mnd_mnGTqRKXwOZpZ8V-13" style="edgeStyle=orthogonalEdgeStyle;rounded=0;orthogonalLoop=1;jettySize=auto;html=1;entryX=0.5;entryY=0;entryDx=0;entryDy=0;" edge="1" parent="WIyWlLk6GJQsqaUBKTNV-1" source="_Mnd_mnGTqRKXwOZpZ8V-0" target="_Mnd_mnGTqRKXwOZpZ8V-1">
          <mxGeometry relative="1" as="geometry" />
        </mxCell>
        <mxCell id="_Mnd_mnGTqRKXwOZpZ8V-0" value="เริ่มต้น" style="ellipse;whiteSpace=wrap;html=1;" vertex="1" parent="WIyWlLk6GJQsqaUBKTNV-1">
          <mxGeometry x="320" y="10" width="96" height="60" as="geometry" />
        </mxCell>
        <mxCell id="_Mnd_mnGTqRKXwOZpZ8V-14" style="edgeStyle=orthogonalEdgeStyle;rounded=0;orthogonalLoop=1;jettySize=auto;html=1;entryX=0.5;entryY=0;entryDx=0;entryDy=0;" edge="1" parent="WIyWlLk6GJQsqaUBKTNV-1" source="_Mnd_mnGTqRKXwOZpZ8V-1" target="_Mnd_mnGTqRKXwOZpZ8V-2">
          <mxGeometry relative="1" as="geometry" />
        </mxCell>
        <mxCell id="_Mnd_mnGTqRKXwOZpZ8V-1" value="" style="ellipse;whiteSpace=wrap;html=1;aspect=fixed;" vertex="1" parent="WIyWlLk6GJQsqaUBKTNV-1">
          <mxGeometry x="358" y="100" width="20" height="20" as="geometry" />
        </mxCell>
        <mxCell id="_Mnd_mnGTqRKXwOZpZ8V-15" style="edgeStyle=orthogonalEdgeStyle;rounded=0;orthogonalLoop=1;jettySize=auto;html=1;entryX=0.5;entryY=0;entryDx=0;entryDy=0;" edge="1" parent="WIyWlLk6GJQsqaUBKTNV-1" source="_Mnd_mnGTqRKXwOZpZ8V-2" target="_Mnd_mnGTqRKXwOZpZ8V-3">
          <mxGeometry relative="1" as="geometry" />
        </mxCell>
        <mxCell id="_Mnd_mnGTqRKXwOZpZ8V-26" style="edgeStyle=orthogonalEdgeStyle;rounded=0;orthogonalLoop=1;jettySize=auto;html=1;entryX=0;entryY=0.5;entryDx=0;entryDy=0;" edge="1" parent="WIyWlLk6GJQsqaUBKTNV-1" source="_Mnd_mnGTqRKXwOZpZ8V-2" target="_Mnd_mnGTqRKXwOZpZ8V-1">
          <mxGeometry relative="1" as="geometry">
            <mxPoint x="240" y="100" as="targetPoint" />
            <Array as="points">
              <mxPoint x="240" y="180" />
              <mxPoint x="240" y="110" />
            </Array>
          </mxGeometry>
        </mxCell>
        <mxCell id="_Mnd_mnGTqRKXwOZpZ8V-2" value="ผู้ใช้งานกรอกข้อมูล" style="rounded=0;whiteSpace=wrap;html=1;" vertex="1" parent="WIyWlLk6GJQsqaUBKTNV-1">
          <mxGeometry x="308" y="150" width="120" height="60" as="geometry" />
        </mxCell>
        <mxCell id="_Mnd_mnGTqRKXwOZpZ8V-16" style="edgeStyle=orthogonalEdgeStyle;rounded=0;orthogonalLoop=1;jettySize=auto;html=1;" edge="1" parent="WIyWlLk6GJQsqaUBKTNV-1" source="_Mnd_mnGTqRKXwOZpZ8V-3">
          <mxGeometry relative="1" as="geometry">
            <mxPoint x="368" y="360" as="targetPoint" />
          </mxGeometry>
        </mxCell>
        <mxCell id="_Mnd_mnGTqRKXwOZpZ8V-3" value="ผู้ใช้งานส่งข้อมูล" style="shape=parallelogram;perimeter=parallelogramPerimeter;whiteSpace=wrap;html=1;fixedSize=1;" vertex="1" parent="WIyWlLk6GJQsqaUBKTNV-1">
          <mxGeometry x="298" y="260" width="140" height="60" as="geometry" />
        </mxCell>
        <mxCell id="_Mnd_mnGTqRKXwOZpZ8V-17" style="edgeStyle=orthogonalEdgeStyle;rounded=0;orthogonalLoop=1;jettySize=auto;html=1;entryX=0.5;entryY=0;entryDx=0;entryDy=0;" edge="1" parent="WIyWlLk6GJQsqaUBKTNV-1" source="_Mnd_mnGTqRKXwOZpZ8V-4" target="_Mnd_mnGTqRKXwOZpZ8V-5">
          <mxGeometry relative="1" as="geometry" />
        </mxCell>
        <mxCell id="_Mnd_mnGTqRKXwOZpZ8V-4" value="ทำการฝากข้อมูล&lt;br&gt;.NET" style="rounded=0;whiteSpace=wrap;html=1;" vertex="1" parent="WIyWlLk6GJQsqaUBKTNV-1">
          <mxGeometry x="308" y="361" width="120" height="60" as="geometry" />
        </mxCell>
        <mxCell id="_Mnd_mnGTqRKXwOZpZ8V-18" style="edgeStyle=orthogonalEdgeStyle;rounded=0;orthogonalLoop=1;jettySize=auto;html=1;entryX=0;entryY=0;entryDx=77.5;entryDy=0;entryPerimeter=0;" edge="1" parent="WIyWlLk6GJQsqaUBKTNV-1" source="_Mnd_mnGTqRKXwOZpZ8V-5" target="_Mnd_mnGTqRKXwOZpZ8V-6">
          <mxGeometry relative="1" as="geometry" />
        </mxCell>
        <mxCell id="_Mnd_mnGTqRKXwOZpZ8V-24" style="edgeStyle=orthogonalEdgeStyle;rounded=0;orthogonalLoop=1;jettySize=auto;html=1;entryX=0;entryY=0.5;entryDx=0;entryDy=0;entryPerimeter=0;" edge="1" parent="WIyWlLk6GJQsqaUBKTNV-1" source="_Mnd_mnGTqRKXwOZpZ8V-5" target="_Mnd_mnGTqRKXwOZpZ8V-12">
          <mxGeometry relative="1" as="geometry" />
        </mxCell>
        <mxCell id="_Mnd_mnGTqRKXwOZpZ8V-5" value="ระบบตรวจสอบข้อมูล" style="rhombus;whiteSpace=wrap;html=1;" vertex="1" parent="WIyWlLk6GJQsqaUBKTNV-1">
          <mxGeometry x="307" y="465" width="122" height="120" as="geometry" />
        </mxCell>
        <mxCell id="_Mnd_mnGTqRKXwOZpZ8V-19" style="edgeStyle=orthogonalEdgeStyle;rounded=0;orthogonalLoop=1;jettySize=auto;html=1;entryX=0.5;entryY=0;entryDx=0;entryDy=0;" edge="1" parent="WIyWlLk6GJQsqaUBKTNV-1" source="_Mnd_mnGTqRKXwOZpZ8V-6" target="_Mnd_mnGTqRKXwOZpZ8V-7">
          <mxGeometry relative="1" as="geometry" />
        </mxCell>
        <mxCell id="_Mnd_mnGTqRKXwOZpZ8V-6" value="แสดงผลการตรวจสอบข้อมูล&lt;br&gt;(ถูกต้อง)" style="shape=display;whiteSpace=wrap;html=1;" vertex="1" parent="WIyWlLk6GJQsqaUBKTNV-1">
          <mxGeometry x="291" y="650" width="152" height="70" as="geometry" />
        </mxCell>
        <mxCell id="_Mnd_mnGTqRKXwOZpZ8V-21" style="edgeStyle=orthogonalEdgeStyle;rounded=0;orthogonalLoop=1;jettySize=auto;html=1;entryX=0.5;entryY=0;entryDx=0;entryDy=0;" edge="1" parent="WIyWlLk6GJQsqaUBKTNV-1" source="_Mnd_mnGTqRKXwOZpZ8V-7" target="_Mnd_mnGTqRKXwOZpZ8V-8">
          <mxGeometry relative="1" as="geometry" />
        </mxCell>
        <mxCell id="_Mnd_mnGTqRKXwOZpZ8V-7" value="ASP.net ทำการส่ง&lt;br&gt;ข้อมูลไปยัง Back-end" style="rounded=0;whiteSpace=wrap;html=1;" vertex="1" parent="WIyWlLk6GJQsqaUBKTNV-1">
          <mxGeometry x="307" y="770" width="120" height="60" as="geometry" />
        </mxCell>
        <mxCell id="_Mnd_mnGTqRKXwOZpZ8V-22" style="edgeStyle=orthogonalEdgeStyle;rounded=0;orthogonalLoop=1;jettySize=auto;html=1;entryX=0.5;entryY=0;entryDx=0;entryDy=0;" edge="1" parent="WIyWlLk6GJQsqaUBKTNV-1" source="_Mnd_mnGTqRKXwOZpZ8V-8" target="_Mnd_mnGTqRKXwOZpZ8V-9">
          <mxGeometry relative="1" as="geometry" />
        </mxCell>
        <mxCell id="_Mnd_mnGTqRKXwOZpZ8V-8" value="Vb.net Back-end&lt;br&gt;ส่งข้อมูลเข้า Database" style="rounded=0;whiteSpace=wrap;html=1;" vertex="1" parent="WIyWlLk6GJQsqaUBKTNV-1">
          <mxGeometry x="307" y="880" width="120" height="60" as="geometry" />
        </mxCell>
        <mxCell id="_Mnd_mnGTqRKXwOZpZ8V-23" style="edgeStyle=orthogonalEdgeStyle;rounded=0;orthogonalLoop=1;jettySize=auto;html=1;entryX=0.5;entryY=0;entryDx=0;entryDy=0;" edge="1" parent="WIyWlLk6GJQsqaUBKTNV-1" source="_Mnd_mnGTqRKXwOZpZ8V-9" target="_Mnd_mnGTqRKXwOZpZ8V-11">
          <mxGeometry relative="1" as="geometry" />
        </mxCell>
        <mxCell id="_Mnd_mnGTqRKXwOZpZ8V-9" value="บันทึกข้อมูลลง&lt;br&gt;Databaes" style="rounded=0;whiteSpace=wrap;html=1;" vertex="1" parent="WIyWlLk6GJQsqaUBKTNV-1">
          <mxGeometry x="307" y="990" width="120" height="60" as="geometry" />
        </mxCell>
        <mxCell id="_Mnd_mnGTqRKXwOZpZ8V-11" value="จบการทำงาน" style="ellipse;whiteSpace=wrap;html=1;" vertex="1" parent="WIyWlLk6GJQsqaUBKTNV-1">
          <mxGeometry x="319" y="1092" width="96" height="60" as="geometry" />
        </mxCell>
        <mxCell id="_Mnd_mnGTqRKXwOZpZ8V-25" style="edgeStyle=orthogonalEdgeStyle;rounded=0;orthogonalLoop=1;jettySize=auto;html=1;entryX=1;entryY=0.5;entryDx=0;entryDy=0;exitX=0;exitY=0;exitDx=70.25;exitDy=0;exitPerimeter=0;" edge="1" parent="WIyWlLk6GJQsqaUBKTNV-1" source="_Mnd_mnGTqRKXwOZpZ8V-12" target="_Mnd_mnGTqRKXwOZpZ8V-1">
          <mxGeometry relative="1" as="geometry">
            <mxPoint x="690" y="110" as="targetPoint" />
            <Array as="points">
              <mxPoint x="630" y="110" />
            </Array>
          </mxGeometry>
        </mxCell>
        <mxCell id="_Mnd_mnGTqRKXwOZpZ8V-12" value="แสดงผลตรวจสอบข้อมูล&lt;br&gt;(Error)" style="shape=display;whiteSpace=wrap;html=1;" vertex="1" parent="WIyWlLk6GJQsqaUBKTNV-1">
          <mxGeometry x="560" y="490.5" width="140" height="69" as="geometry" />
        </mxCell>
        <mxCell id="_Mnd_mnGTqRKXwOZpZ8V-27" value="N" style="text;html=1;align=center;verticalAlign=middle;resizable=0;points=[];autosize=1;strokeColor=none;fillColor=none;" vertex="1" parent="WIyWlLk6GJQsqaUBKTNV-1">
          <mxGeometry x="438" y="490.5" width="30" height="30" as="geometry" />
        </mxCell>
        <mxCell id="_Mnd_mnGTqRKXwOZpZ8V-28" value="Y" style="text;html=1;align=center;verticalAlign=middle;resizable=0;points=[];autosize=1;strokeColor=none;fillColor=none;" vertex="1" parent="WIyWlLk6GJQsqaUBKTNV-1">
          <mxGeometry x="369" y="585" width="30" height="30" as="geometry" />
        </mxCell>
      </root>
    </mxGraphModel>
  </diagram>
</mxfile>
